<svg xmlns="http://www.w3.org/2000/svg" width="32" height="32" viewBox="0 0 32 32"><path fill="none" stroke="#000" stroke-miterlimit="10" d="M.8 4.1h30.5v27.36H.8z"/><path fill="none" stroke="#000" stroke-linejoin="round" stroke-width=".75" d="M23.2 4.1c-6.1-3.1-7.3-2.8-7.3-2.8h.2S14.9 1 8.8 4.1"/><circle cx="16" cy="1.5" r="1"/><path d="M26.4 26.8c0 .2-.2.2-.6.2h-7c-.4 0-.6-.1-.6-.2s.3-.3.8-.3a3.1 3.1 0 0 0 1.8-.3 6.3 6.3 0 0 0 .1-1.9V9.7l-.3 1q-1.2 3.5-3.3 10.2L16 25.4c-.3.9-.5 1.3-.6 1.3s-.2-.2-.4-.7-2.1-5.9-4.6-12.7l-1.1-3v10.6a42.7 42.7 0 0 0 .1 5.2c.1.2.6.3 1.3.3s1 .1 1 .3-.2.3-.6.3H6.5c-.4 0-.5-.1-.5-.2s.5-.3 1.6-.3.7-.1.7-.3a3 3 0 0 0 .2-1.4V11.3c0-1.6-.1-2.4-.1-2.5s-.2-.5-.5-.6L6.3 8c-.3 0-.4-.1-.4-.2s.3-.4.8-.4H11c.1.3.7 1.7 1.7 4.4l3.6 9.9c.3-1.2.7-2.4 1.1-3.6l3-9.3a3.9 3.9 0 0 1 .5-1.3h5.2a.4.4 0 0 1 .1.3c0 .2-.1.3-.5.3h-1c-.5.1-.8.2-1 .5a18 18 0 0 0-.1 3.3V25a2.7 2.7 0 0 0 .2 1.3 3.8 3.8 0 0 0 1.9.3h.1c.4 0 .6 0 .6.2z"/></svg>