<svg xmlns="http://www.w3.org/2000/svg" width="64" height="64" viewBox="0 0 64 64"><path stroke="#000" stroke-miterlimit="10" stroke-width=".25" d="M9.5 20.9c.1-1.3.1-2.5.2-3.7a12.3 12.3 0 0 1 .2-2V15h-.8l-1.1.1-1.8.4h-.3l.8-.2 1.5-.3 1.6-.2h.5c-.1 0-.1.1-.1.2a5.3 5.3 0 0 0-.3 1.2c-.1.8-.1 1.7-.2 2.6v3.4a23.5 23.5 0 0 0 .1 2.6h-.1c0-.1-.1-.1-.1-.2v-1a24.4 24.4 0 0 0-.1-2.7zm1.2 1.9c.1 0 .1 0 .2-.2a.6.6 0 0 1 .6 0 .2.2 0 0 1 .2.2h.8l.6-.6.4-.5h.1c.1.1 0 .1 0 .1a3.4 3.4 0 0 1-.8.9.5.5 0 0 1-.5.3.5.5 0 0 1-.6-.1l-.3-.2c-.3-.1-.4.1-.6.3l-.2.2a.4.4 0 0 1-.1-.3 10.3 10.3 0 0 1-.1-2.5 7.1 7.1 0 0 1 .7-2.7 3.6 3.6 0 0 1 .8-.9.6.6 0 0 1 .7.1c.1.1.1.3.2.5a2.7 2.7 0 0 1-.5 1.6 5.6 5.6 0 0 1-1 1.5l-.6.7a.8.8 0 0 0-.2.4 5 5 0 0 0 .2 1.2zm-.1-2.2c0 .7.1.3.7-.3a6.4 6.4 0 0 0 1.3-2.4v-.7c-.1-.1-.1-.1-.1-.2s-.3-.2-.4-.1l-.3.2-.3.3-.4.7a5.6 5.6 0 0 0-.5 2.5z"/><path stroke="#000" stroke-miterlimit="10" stroke-width=".25" d="M14.5 22.9c-1 .2-1.5-.7-.7-1.5s.5 0 .4.3-.1.2-.2.4l-.3.3c0 .1 0 .2.1.2l.3.2.9-.2.9-.5.5-.3h.1a3.8 3.8 0 0 1-1.3.9zm-.9-.7a1.2 1.2 0 0 0 .5-.5c.2-.5-.5-.1-.5.5z"/><path stroke="#000" stroke-miterlimit="10" stroke-width=".26" d="M29.4 35.2c.2 1.2.3 2.2.4 3.1s0 .2.1.2.1 0 .2-.2a1.3 1.3 0 0 1 .1-.6l.5-1.4a2.5 2.5 0 0 1 .8-1.2l.6-.5a1.5 1.5 0 0 1 1.6.1 3.6 3.6 0 0 1 1 1.1 5.9 5.9 0 0 1 .7 2.6 8.3 8.3 0 0 1-.7 4.1 5 5 0 0 1-1.3 1.9 2.4 2.4 0 0 1-.8.6 1.3 1.3 0 0 1-1.2.1l-.5-.2c-.1-.1-.2 0-.2.2a7.7 7.7 0 0 1 .2 1.5l.4 2.5v.8c0 .1-.1.2-.1.3s-.3.2-.4.1l-.2-.3a4.8 4.8 0 0 1-.5-1.7 23 23 0 0 1-.5-4.5 12.2 12.2 0 0 1 .1-3.3 1.5 1.5 0 0 1-.1-.7c0-.3-.1-.7-.1-1.1a52.9 52.9 0 0 1-.5-5.6.9.9 0 0 1 .1-.5c0-.1 0-.1.1-.1a.8.8 0 0 1 .1.4 21.1 21.1 0 0 1 .1 2.3zm.5 7.4v2.6a22.5 22.5 0 0 0 .6 3.6 1.4 1.4 0 0 0 .2.6h.1a.1.1 0 0 0 .1-.1v-.7l-.9-5.7a.8.8 0 0 0-.1-.3zm.3-.9a20.7 20.7 0 0 0 .4 2.2c0 .1 0 .1.1.2s1.2 1.1 1.9.5l.7-.5.7-.9a7.9 7.9 0 0 0 1.1-4.5c0-.4-.1-.8-.1-1.2a6.1 6.1 0 0 0-.7-1.7 1.8 1.8 0 0 0-1-.9 1.1 1.1 0 0 0-1.2.1l-.5.4-.6 1a13.7 13.7 0 0 0-.7 2.4 4.8 4.8 0 0 0-.1 2.9zm5.7 7.2c-.2-.5-.3-2-.6-3.6 0 0 0-.3.2-.3s.2.2.2.6.3 1.7.4 2.5.1.1.2.1l.2-.3.5-.8a10.8 10.8 0 0 1 2.8-2.4h.2a.1.1 0 0 1-.1.1l-.5.4a7.4 7.4 0 0 0-2.8 3c-.2.4-.6 1.1-.7.7z"/><path stroke="#000" stroke-miterlimit="10" stroke-width=".26" d="M41.4 46.5c-1 .7-1.9-.9-1.4-2.3s0-.1.1-.1a.1.1 0 0 1 .1.1v.3c-.1.8.1 1.9.8 1.8s1.9-1.8 1.9-1.7c.1 0 .1 0 .1.1a3.7 3.7 0 0 1-1.6 1.8zm-1.3-4.2c0-.1.1-.4.1-.6v-.2h.2c0 .3-.1.6-.1.9s-.1.1-.1 0h-.1z"/><path stroke="#000" stroke-miterlimit="10" stroke-width=".26" d="M43.1 45.7c-.4 0-.7-3-.2-2.7s.2.1.1.1a4.1 4.1 0 0 0 .1 1.9c.4-.1.3-.7.8-1.1a.8.8 0 0 1 1.1.1l.6.6.5.4a.5.5 0 0 0 .6-.1c.3-.1.4-.3.6-.5a2 2 0 0 1 .6-.7h.1a4.4 4.4 0 0 1-.8 1.1l-.4.2a.8.8 0 0 1-.9 0l-.6-.4-.6-.5c-.1-.2-.5-.2-.7 0a1.6 1.6 0 0 0-.4.7l-.2.4c-.1.4-.1.6-.3.5z"/><path stroke="#000" stroke-miterlimit="10" stroke-width=".35" d="M48.6 36.2a1.3 1.3 0 0 0-.1.6 38.7 38.7 0 0 0-.3 4.8 20.4 20.4 0 0 0 0 3.5 20 20 0 0 0 .4 2.4l.3.7c.1.1.1.2.2.2a.4.4 0 0 0 .4.2l.5-.3a1.5 1.5 0 0 0 .5-.6 3.7 3.7 0 0 0 .7-1.2c.4-.9.7-1.8 1.1-2.6a.8.8 0 0 1 .2-.5c0-.1.1-.1.2 0v.2l-1.2 3a4.2 4.2 0 0 1-.9 1.4.9.9 0 0 1-.6.6l-.2.2a.8.8 0 0 1-.9-.2l-.3-.5a2.5 2.5 0 0 1-.4-.9c-.1-1-.3-2.2-.3-3.3v-3.4l.3-3.7v-.4h-.1l-.7.3-1.6.6-.6.3a.2.2 0 0 1-.4.1h-.1v-.2l2.5-1 .9-.4c.1 0 .2-.1.2-.3a2.8 2.8 0 0 0 .1-.9l.6-3.2c0-.1.1-.3.1-.4h.2c-.1.3-.1.7-.2 1.1s-.4 2-.5 3v.2a.2.2 0 0 0 .2.2l.8-.3 1.9-.6h.2l-.9.3-2 .7z"/><path stroke="#000" stroke-miterlimit="10" stroke-width=".35" d="M54.8 41s-.1-.1 0-.1a.3.3 0 0 0-.1-.2h-.1a4.8 4.8 0 0 0-1.8 2.6 1.5 1.5 0 0 0-.1.7.7.7 0 0 0 .3.5h1.4a2 2 0 0 1 1.3.4c0 .1.1.1.2.1h.2l2.5-2.1.3-.3a.1.1 0 0 1 .1.1c.1 0 .1.1 0 .1s-.1.2-.3.3l-2.3 2c-.1.1-.3.2-.3.4a2.5 2.5 0 0 0 .2.7 2.7 2.7 0 0 1-.9 2.5 2 2 0 0 1-.9.6H54a.6.6 0 0 1-.6-.8.6.6 0 0 1 .1-.4l.4-.8.8-.9a3 3 0 0 1 .8-.8c.1-.2.1-.3-.1-.4l-.5-.3h-2.1a.5.5 0 0 1-.3-.5 1.3 1.3 0 0 1-.1-.6 6.4 6.4 0 0 1 .2-.7 6 6 0 0 1 1.6-2.2c.1-.2.4-.3.6-.4a.5.5 0 0 1 .3.3c0 .2-.1.3-.1.4zm1.2 5.5v-.4c0-.1-.1-.1-.1-.2s-.2-.1-.2-.1a8.6 8.6 0 0 0-1.8 2c-.1.1-.1.3-.2.5v.4a.3.3 0 0 0 .3.3 1.5 1.5 0 0 0 .9-.2 2.3 2.3 0 0 0 1.1-2.3z"/><path stroke="#000" stroke-miterlimit="10" stroke-width=".12" d="M50.8 54.7v.2a1.9 1.9 0 0 0-.1.8h.1v.3h-.2c-.1-.2-.1-.3-.2-.3a1.6 1.6 0 0 1-1.2.4 2.1 2.1 0 0 1-1.7-.7 2.4 2.4 0 0 1-.7-1.8 2.4 2.4 0 0 1 .6-1.8A2.1 2.1 0 0 1 49 51h.6l.5.3h.3a.1.1 0 0 0 .1-.1.3.3 0 0 0 .1-.2.1.1 0 0 1 .1.1 3.8 3.8 0 0 0-.1 1.3h-.1a.1.1 0 0 1-.1-.1 1.3 1.3 0 0 0-.2-.8 1.3 1.3 0 0 0-1.1-.6 1 1 0 0 0-.9.4 2.8 2.8 0 0 0-.6 2 2.4 2.4 0 0 0 .5 1.8 1.3 1.3 0 0 0 1.1.6l.7-.2c.2-.1.3-.3.5-.5a1.9 1.9 0 0 0 .2-.8.1.1 0 0 1 .1-.1c.1.5.1.5.1.6zm5.1-.9a2.8 2.8 0 0 1-.6 1.8 2.1 2.1 0 0 1-1.6.7 2 2 0 0 1-1.6-.7 2.4 2.4 0 0 1-.7-1.8A2.4 2.4 0 0 1 52 52a2.3 2.3 0 0 1 1.7-.8 2.3 2.3 0 0 1 1.6.8 2.8 2.8 0 0 1 .6 1.8zm-.8.1a4.1 4.1 0 0 0-.5-2.1 1.2 1.2 0 0 0-1-.4 1.1 1.1 0 0 0-.8.3 2.9 2.9 0 0 0-.6 2.1 3 3 0 0 0 .4 1.8 1.3 1.3 0 0 0 1.1.6 1 1 0 0 0 1-.6 2.9 2.9 0 0 0 .4-1.7zm2.4 2a.4.4 0 0 1-.1.3h-.6c0-.1-.1-.2-.1-.3s.1-.2.1-.3h.6a.4.4 0 0 1 .1.3zm-42.9-22c0 .1 0 .1-.2.1h-3.3c-.2 0-.3 0-.3-.1s.2-.1.4-.1.7-.1.8-.2.1-.3.1-.8V26l-.2.4q-.5 1.7-1.5 4.8l-.6 2.1q-.2.6-.3.6a.4.4 0 0 1-.1-.3l-2.2-6-.5-1.4v7.4a1 1 0 0 0 .7.2c.3 0 .4 0 .4.1s-.1.1-.3.1H5.4c-.2 0-.3 0-.3-.1s.3-.1.8-.1h.4v-8.3c-.1-.1-.1-.2-.2-.2h-1c0-.1.1-.2.4-.2h2c.1.1.3.8.8 2.1l1.6 4.6a15.4 15.4 0 0 0 .5-1.7l1.4-4.3.3-.7H14c.3 0 .5 0 .5.1a.1.1 0 0 1 .1.1h-.7l-.5.2v7.7c0 .3 0 .5.1.6h.9c.2 0 .2.1.2.1zm9-4.4a5.2 5.2 0 0 1-1.1 3.3 3.8 3.8 0 0 1-2.9 1.4 4.3 4.3 0 0 1-3.1-1.4 4.9 4.9 0 0 1-1.2-3.4 4.8 4.8 0 0 1 1.2-3.3 3.8 3.8 0 0 1 3-1.3 3.3 3.3 0 0 1 2.9 1.4 4.8 4.8 0 0 1 1.2 3.3zm-1.4.1a6.3 6.3 0 0 0-1-3.7 2 2 0 0 0-1.7-.9 2.1 2.1 0 0 0-1.7.7c-.7.7-1 2-1 3.8a6.2 6.2 0 0 0 .7 3.3 2.3 2.3 0 0 0 2.1 1.1 2.1 2.1 0 0 0 1.9-1.1 7.2 7.2 0 0 0 .7-3.2zm10.8-.1a4.4 4.4 0 0 1-1.6 3.6 5.1 5.1 0 0 1-3.2.9h-3.5c-.2 0-.3 0-.3-.1s.2-.1.5-.1l.6-.2a.7.7 0 0 0 .1-.5V26a2.4 2.4 0 0 0-.1-.7h-.7c-.2 0-.3-.1-.3-.2H27a12.1 12.1 0 0 1 3.3.3 3.9 3.9 0 0 1 2 1.6 5 5 0 0 1 .7 2.5zm-1.5-.1a5.6 5.6 0 0 0-.8-3.2 3.3 3.3 0 0 0-2.7-1 1.6 1.6 0 0 0-1 .2c-.1.1-.1.3-.1.6v7.4c0 .1.1.1.1.2h1.3a2.8 2.8 0 0 0 2.3-1 5 5 0 0 0 .9-3.2zm9.4 2.5v.6a4.9 4.9 0 0 0-.1 1.2v.4h-6.7c-.1 0-.2 0-.2-.1a.1.1 0 0 1 .1-.1h.9v-8c0-.3 0-.4-.1-.5h-.7c-.1 0-.2 0-.2-.1h6.6a9.2 9.2 0 0 0 .1 1.5v.8a.1.1 0 0 1-.1.1c-.1 0-.1-.1-.2-.3s-.4-1.3-.8-1.5a4.8 4.8 0 0 0-2.2-.3h-1.1v3.9h.3a3.1 3.1 0 0 0 1.8-.3c.2-.1.4-.5.5-1.3s0-.2.1-.2a.2.2 0 0 1 .2.2c0 .2-.1.4-.1.7V31c0 .2-.1.2-.2.2h-.1a3.5 3.5 0 0 1-.1-.7c-.1-.5-.3-.9-.7-1h-1.7v4.4h3.4c.6-.1.9-.7 1-1.6s.1-.4.2-.4a.4.4 0 0 1 .1 0zm8.8 1.7q0 .6-.9.6a1.8 1.8 0 0 1-1.6-.9 1.1 1.1 0 0 1-.3-.7 4.9 4.9 0 0 1-.2-1.7 1.7 1.7 0 0 0-.6-1.2 2.7 2.7 0 0 0-1.5-.4v4.1c0 .2.2.3.4.4h.6c.2 0 .2 0 .2.1s-.1.1-.2.1h-3.1c-.2 0-.3 0-.3-.1s.2-.1.4-.1a1 1 0 0 0 .7-.2v-7.7c0-.3 0-.5-.1-.6h-1a.2.2 0 0 1 .2-.2h3.3a3 3 0 0 1 2 .6 1.5 1.5 0 0 1 .7 1.4 2.1 2.1 0 0 1-.7 1.5 3.2 3.2 0 0 1-2 .7 3.1 3.1 0 0 1 1.9 1 6.6 6.6 0 0 1 .6 2.6c.1.7.4 1.1.8 1.1s.2 0 .2-.1a.3.3 0 0 1-.1-.2.3.3 0 0 1 .6 0zM47 27.1c0-1.3-.5-1.9-1.6-1.9h-.6a.5.5 0 0 0-.2.4V29a2.6 2.6 0 0 0 1.8-.5 1.8 1.8 0 0 0 .6-1.4zm11.3-2h-1.1v8a3.8 3.8 0 0 1-.1.8c-.1 0-.2 0-.2-.1l-1.7-2.5c-1-1.4-2.1-3.2-3.5-5.3v7.3c0 .1 0 .2.2.2h.9c.1 0 .1 0 .1.1s-.1.1-.3.1h-2.3c-.2 0-.3 0-.3-.1s.1-.1.3-.1h.9c.1-.1.1-.3.1-.6v-6.2c0-.7-.1-1.2-.4-1.4h-.8c-.2 0-.3-.1-.3-.2h2.5l4.5 6.8v-6.6h-1.2c0-.1.1-.2.3-.2H58c.2-.2.3-.1.3 0z"/><path fill="none" stroke="#000" stroke-miterlimit="10" d="M.6 7.1h62.9v56.44H.6zm46.3 0C34.3.6 31.8 1.2 31.8 1.2h.4S29.7.6 17.1 7.1"/><circle cx="32" cy="1.6" r="1.6"/></svg>