<svg xmlns="http://www.w3.org/2000/svg" width="16" height="16" viewBox="0 0 16 16"><path fill="none" stroke="#000" stroke-miterlimit="10" stroke-width=".75" d="M.2 1.9h15.5v13.94H.2z"/><path fill="none" stroke="#000" stroke-linejoin="round" stroke-width=".5" d="M11.7 1.9C8.6.3 7.9.5 7.9.5h.2S7.4.3 4.3 1.9"/><circle cx="8" cy=".6" r=".6"/><path stroke="#000" stroke-miterlimit="10" stroke-width=".25" d="M13.3 13.5H9.1l.4-.2h.9c.1-.1.1-.4.1-1V4.8a1.2 1.2 0 0 0-.2.5c-.4 1.1-.9 2.9-1.6 5.2L8 12.8q-.1.6-.3.6c-.1 0-.1-.1-.2-.3L5.2 6.6 4.6 5v8.1a1 1 0 0 0 .7.2h.5c0 .1-.1.2-.3.2H2.9c0-.1.3-.2.8-.2s.4 0 .4-.1a3.8 3.8 0 0 0 .1-.8V5.6a7.3 7.3 0 0 0-.1-1.3c0-.2-.1-.2-.2-.3h-.8c-.2 0-.2-.1-.2-.1s.1-.2.4-.2h2.2c0 .1.3.9.8 2.2L8.1 11l.6-2 1.5-4.7.3-.7h2.6v.2c0 .1-.1.1-.2.1h-.6l-.5.3v8.3c0 .4 0 .6.1.7h1c.3.1.4.2.4.3z"/></svg>