<svg xmlns="http://www.w3.org/2000/svg"><symbol id="logo-16" viewBox="0 0 16 16"><path fill="none" stroke="#000" stroke-miterlimit="10" stroke-width=".75" d="M.2 1.9h15.5v13.94H.2z"/><path fill="none" stroke="#000" stroke-linejoin="round" stroke-width=".5" d="M11.7 1.9C8.6.3 7.9.5 7.9.5h.2S7.4.3 4.3 1.9"/><circle cx="8" cy=".6" r=".6"/><path stroke="#000" stroke-miterlimit="10" stroke-width=".25" d="M13.3 13.5H9.1l.4-.2h.9c.1-.1.1-.4.1-1V4.8a1.2 1.2 0 0 0-.2.5c-.4 1.1-.9 2.9-1.6 5.2L8 12.8q-.1.6-.3.6c-.1 0-.1-.1-.2-.3L5.2 6.6 4.6 5v8.1a1 1 0 0 0 .7.2h.5c0 .1-.1.2-.3.2H2.9c0-.1.3-.2.8-.2s.4 0 .4-.1a3.8 3.8 0 0 0 .1-.8V5.6a7.3 7.3 0 0 0-.1-1.3c0-.2-.1-.2-.2-.3h-.8c-.2 0-.2-.1-.2-.1s.1-.2.4-.2h2.2c0 .1.3.9.8 2.2L8.1 11l.6-2 1.5-4.7.3-.7h2.6v.2c0 .1-.1.1-.2.1h-.6l-.5.3v8.3c0 .4 0 .6.1.7h1c.3.1.4.2.4.3z"/></symbol><symbol id="logo-64" viewBox="0 0 64 64"><path stroke="#000" stroke-miterlimit="10" stroke-width=".25" d="M9.5 20.9c.1-1.3.1-2.5.2-3.7a12.3 12.3 0 0 1 .2-2V15h-.8l-1.1.1-1.8.4h-.3l.8-.2 1.5-.3 1.6-.2h.5c-.1 0-.1.1-.1.2a5.3 5.3 0 0 0-.3 1.2c-.1.8-.1 1.7-.2 2.6v3.4a23.5 23.5 0 0 0 .1 2.6h-.1c0-.1-.1-.1-.1-.2v-1a24.4 24.4 0 0 0-.1-2.7zm1.2 1.9c.1 0 .1 0 .2-.2a.6.6 0 0 1 .6 0 .2.2 0 0 1 .2.2h.8l.6-.6.4-.5h.1c.1.1 0 .1 0 .1a3.4 3.4 0 0 1-.8.9.5.5 0 0 1-.5.3.5.5 0 0 1-.6-.1l-.3-.2c-.3-.1-.4.1-.6.3l-.2.2a.4.4 0 0 1-.1-.3 10.3 10.3 0 0 1-.1-2.5 7.1 7.1 0 0 1 .7-2.7 3.6 3.6 0 0 1 .8-.9.6.6 0 0 1 .7.1c.1.1.1.3.2.5a2.7 2.7 0 0 1-.5 1.6 5.6 5.6 0 0 1-1 1.5l-.6.7a.8.8 0 0 0-.2.4 5 5 0 0 0 .2 1.2zm-.1-2.2c0 .7.1.3.7-.3a6.4 6.4 0 0 0 1.3-2.4v-.7c-.1-.1-.1-.1-.1-.2s-.3-.2-.4-.1l-.3.2-.3.3-.4.7a5.6 5.6 0 0 0-.5 2.5z"/><path stroke="#000" stroke-miterlimit="10" stroke-width=".25" d="M14.5 22.9c-1 .2-1.5-.7-.7-1.5s.5 0 .4.3-.1.2-.2.4l-.3.3c0 .1 0 .2.1.2l.3.2.9-.2.9-.5.5-.3h.1a3.8 3.8 0 0 1-1.3.9zm-.9-.7a1.2 1.2 0 0 0 .5-.5c.2-.5-.5-.1-.5.5z"/><path stroke="#000" stroke-miterlimit="10" stroke-width=".26" d="M29.4 35.2c.2 1.2.3 2.2.4 3.1s0 .2.1.2.1 0 .2-.2a1.3 1.3 0 0 1 .1-.6l.5-1.4a2.5 2.5 0 0 1 .8-1.2l.6-.5a1.5 1.5 0 0 1 1.6.1 3.6 3.6 0 0 1 1 1.1 5.9 5.9 0 0 1 .7 2.6 8.3 8.3 0 0 1-.7 4.1 5 5 0 0 1-1.3 1.9 2.4 2.4 0 0 1-.8.6 1.3 1.3 0 0 1-1.2.1l-.5-.2c-.1-.1-.2 0-.2.2a7.7 7.7 0 0 1 .2 1.5l.4 2.5v.8c0 .1-.1.2-.1.3s-.3.2-.4.1l-.2-.3a4.8 4.8 0 0 1-.5-1.7 23 23 0 0 1-.5-4.5 12.2 12.2 0 0 1 .1-3.3 1.5 1.5 0 0 1-.1-.7c0-.3-.1-.7-.1-1.1a52.9 52.9 0 0 1-.5-5.6.9.9 0 0 1 .1-.5c0-.1 0-.1.1-.1a.8.8 0 0 1 .1.4 21.1 21.1 0 0 1 .1 2.3zm.5 7.4v2.6a22.5 22.5 0 0 0 .6 3.6 1.4 1.4 0 0 0 .2.6h.1a.1.1 0 0 0 .1-.1v-.7l-.9-5.7a.8.8 0 0 0-.1-.3zm.3-.9a20.7 20.7 0 0 0 .4 2.2c0 .1 0 .1.1.2s1.2 1.1 1.9.5l.7-.5.7-.9a7.9 7.9 0 0 0 1.1-4.5c0-.4-.1-.8-.1-1.2a6.1 6.1 0 0 0-.7-1.7 1.8 1.8 0 0 0-1-.9 1.1 1.1 0 0 0-1.2.1l-.5.4-.6 1a13.7 13.7 0 0 0-.7 2.4 4.8 4.8 0 0 0-.1 2.9zm5.7 7.2c-.2-.5-.3-2-.6-3.6 0 0 0-.3.2-.3s.2.2.2.6.3 1.7.4 2.5.1.1.2.1l.2-.3.5-.8a10.8 10.8 0 0 1 2.8-2.4h.2a.1.1 0 0 1-.1.1l-.5.4a7.4 7.4 0 0 0-2.8 3c-.2.4-.6 1.1-.7.7z"/><path stroke="#000" stroke-miterlimit="10" stroke-width=".26" d="M41.4 46.5c-1 .7-1.9-.9-1.4-2.3s0-.1.1-.1a.1.1 0 0 1 .1.1v.3c-.1.8.1 1.9.8 1.8s1.9-1.8 1.9-1.7c.1 0 .1 0 .1.1a3.7 3.7 0 0 1-1.6 1.8zm-1.3-4.2c0-.1.1-.4.1-.6v-.2h.2c0 .3-.1.6-.1.9s-.1.1-.1 0h-.1z"/><path stroke="#000" stroke-miterlimit="10" stroke-width=".26" d="M43.1 45.7c-.4 0-.7-3-.2-2.7s.2.1.1.1a4.1 4.1 0 0 0 .1 1.9c.4-.1.3-.7.8-1.1a.8.8 0 0 1 1.1.1l.6.6.5.4a.5.5 0 0 0 .6-.1c.3-.1.4-.3.6-.5a2 2 0 0 1 .6-.7h.1a4.4 4.4 0 0 1-.8 1.1l-.4.2a.8.8 0 0 1-.9 0l-.6-.4-.6-.5c-.1-.2-.5-.2-.7 0a1.6 1.6 0 0 0-.4.7l-.2.4c-.1.4-.1.6-.3.5z"/><path stroke="#000" stroke-miterlimit="10" stroke-width=".35" d="M48.6 36.2a1.3 1.3 0 0 0-.1.6 38.7 38.7 0 0 0-.3 4.8 20.4 20.4 0 0 0 0 3.5 20 20 0 0 0 .4 2.4l.3.7c.1.1.1.2.2.2a.4.4 0 0 0 .4.2l.5-.3a1.5 1.5 0 0 0 .5-.6 3.7 3.7 0 0 0 .7-1.2c.4-.9.7-1.8 1.1-2.6a.8.8 0 0 1 .2-.5c0-.1.1-.1.2 0v.2l-1.2 3a4.2 4.2 0 0 1-.9 1.4.9.9 0 0 1-.6.6l-.2.2a.8.8 0 0 1-.9-.2l-.3-.5a2.5 2.5 0 0 1-.4-.9c-.1-1-.3-2.2-.3-3.3v-3.4l.3-3.7v-.4h-.1l-.7.3-1.6.6-.6.3a.2.2 0 0 1-.4.1h-.1v-.2l2.5-1 .9-.4c.1 0 .2-.1.2-.3a2.8 2.8 0 0 0 .1-.9l.6-3.2c0-.1.1-.3.1-.4h.2c-.1.3-.1.7-.2 1.1s-.4 2-.5 3v.2a.2.2 0 0 0 .2.2l.8-.3 1.9-.6h.2l-.9.3-2 .7z"/><path stroke="#000" stroke-miterlimit="10" stroke-width=".35" d="M54.8 41s-.1-.1 0-.1a.3.3 0 0 0-.1-.2h-.1a4.8 4.8 0 0 0-1.8 2.6 1.5 1.5 0 0 0-.1.7.7.7 0 0 0 .3.5h1.4a2 2 0 0 1 1.3.4c0 .1.1.1.2.1h.2l2.5-2.1.3-.3a.1.1 0 0 1 .1.1c.1 0 .1.1 0 .1s-.1.2-.3.3l-2.3 2c-.1.1-.3.2-.3.4a2.5 2.5 0 0 0 .2.7 2.7 2.7 0 0 1-.9 2.5 2 2 0 0 1-.9.6H54a.6.6 0 0 1-.6-.8.6.6 0 0 1 .1-.4l.4-.8.8-.9a3 3 0 0 1 .8-.8c.1-.2.1-.3-.1-.4l-.5-.3h-2.1a.5.5 0 0 1-.3-.5 1.3 1.3 0 0 1-.1-.6 6.4 6.4 0 0 1 .2-.7 6 6 0 0 1 1.6-2.2c.1-.2.4-.3.6-.4a.5.5 0 0 1 .3.3c0 .2-.1.3-.1.4zm1.2 5.5v-.4c0-.1-.1-.1-.1-.2s-.2-.1-.2-.1a8.6 8.6 0 0 0-1.8 2c-.1.1-.1.3-.2.5v.4a.3.3 0 0 0 .3.3 1.5 1.5 0 0 0 .9-.2 2.3 2.3 0 0 0 1.1-2.3z"/><path stroke="#000" stroke-miterlimit="10" stroke-width=".12" d="M50.8 54.7v.2a1.9 1.9 0 0 0-.1.8h.1v.3h-.2c-.1-.2-.1-.3-.2-.3a1.6 1.6 0 0 1-1.2.4 2.1 2.1 0 0 1-1.7-.7 2.4 2.4 0 0 1-.7-1.8 2.4 2.4 0 0 1 .6-1.8A2.1 2.1 0 0 1 49 51h.6l.5.3h.3a.1.1 0 0 0 .1-.1.3.3 0 0 0 .1-.2.1.1 0 0 1 .1.1 3.8 3.8 0 0 0-.1 1.3h-.1a.1.1 0 0 1-.1-.1 1.3 1.3 0 0 0-.2-.8 1.3 1.3 0 0 0-1.1-.6 1 1 0 0 0-.9.4 2.8 2.8 0 0 0-.6 2 2.4 2.4 0 0 0 .5 1.8 1.3 1.3 0 0 0 1.1.6l.7-.2c.2-.1.3-.3.5-.5a1.9 1.9 0 0 0 .2-.8.1.1 0 0 1 .1-.1c.1.5.1.5.1.6zm5.1-.9a2.8 2.8 0 0 1-.6 1.8 2.1 2.1 0 0 1-1.6.7 2 2 0 0 1-1.6-.7 2.4 2.4 0 0 1-.7-1.8A2.4 2.4 0 0 1 52 52a2.3 2.3 0 0 1 1.7-.8 2.3 2.3 0 0 1 1.6.8 2.8 2.8 0 0 1 .6 1.8zm-.8.1a4.1 4.1 0 0 0-.5-2.1 1.2 1.2 0 0 0-1-.4 1.1 1.1 0 0 0-.8.3 2.9 2.9 0 0 0-.6 2.1 3 3 0 0 0 .4 1.8 1.3 1.3 0 0 0 1.1.6 1 1 0 0 0 1-.6 2.9 2.9 0 0 0 .4-1.7zm2.4 2a.4.4 0 0 1-.1.3h-.6c0-.1-.1-.2-.1-.3s.1-.2.1-.3h.6a.4.4 0 0 1 .1.3zm-42.9-22c0 .1 0 .1-.2.1h-3.3c-.2 0-.3 0-.3-.1s.2-.1.4-.1.7-.1.8-.2.1-.3.1-.8V26l-.2.4q-.5 1.7-1.5 4.8l-.6 2.1q-.2.6-.3.6a.4.4 0 0 1-.1-.3l-2.2-6-.5-1.4v7.4a1 1 0 0 0 .7.2c.3 0 .4 0 .4.1s-.1.1-.3.1H5.4c-.2 0-.3 0-.3-.1s.3-.1.8-.1h.4v-8.3c-.1-.1-.1-.2-.2-.2h-1c0-.1.1-.2.4-.2h2c.1.1.3.8.8 2.1l1.6 4.6a15.4 15.4 0 0 0 .5-1.7l1.4-4.3.3-.7H14c.3 0 .5 0 .5.1a.1.1 0 0 1 .1.1h-.7l-.5.2v7.7c0 .3 0 .5.1.6h.9c.2 0 .2.1.2.1zm9-4.4a5.2 5.2 0 0 1-1.1 3.3 3.8 3.8 0 0 1-2.9 1.4 4.3 4.3 0 0 1-3.1-1.4 4.9 4.9 0 0 1-1.2-3.4 4.8 4.8 0 0 1 1.2-3.3 3.8 3.8 0 0 1 3-1.3 3.3 3.3 0 0 1 2.9 1.4 4.8 4.8 0 0 1 1.2 3.3zm-1.4.1a6.3 6.3 0 0 0-1-3.7 2 2 0 0 0-1.7-.9 2.1 2.1 0 0 0-1.7.7c-.7.7-1 2-1 3.8a6.2 6.2 0 0 0 .7 3.3 2.3 2.3 0 0 0 2.1 1.1 2.1 2.1 0 0 0 1.9-1.1 7.2 7.2 0 0 0 .7-3.2zm10.8-.1a4.4 4.4 0 0 1-1.6 3.6 5.1 5.1 0 0 1-3.2.9h-3.5c-.2 0-.3 0-.3-.1s.2-.1.5-.1l.6-.2a.7.7 0 0 0 .1-.5V26a2.4 2.4 0 0 0-.1-.7h-.7c-.2 0-.3-.1-.3-.2H27a12.1 12.1 0 0 1 3.3.3 3.9 3.9 0 0 1 2 1.6 5 5 0 0 1 .7 2.5zm-1.5-.1a5.6 5.6 0 0 0-.8-3.2 3.3 3.3 0 0 0-2.7-1 1.6 1.6 0 0 0-1 .2c-.1.1-.1.3-.1.6v7.4c0 .1.1.1.1.2h1.3a2.8 2.8 0 0 0 2.3-1 5 5 0 0 0 .9-3.2zm9.4 2.5v.6a4.9 4.9 0 0 0-.1 1.2v.4h-6.7c-.1 0-.2 0-.2-.1a.1.1 0 0 1 .1-.1h.9v-8c0-.3 0-.4-.1-.5h-.7c-.1 0-.2 0-.2-.1h6.6a9.2 9.2 0 0 0 .1 1.5v.8a.1.1 0 0 1-.1.1c-.1 0-.1-.1-.2-.3s-.4-1.3-.8-1.5a4.8 4.8 0 0 0-2.2-.3h-1.1v3.9h.3a3.1 3.1 0 0 0 1.8-.3c.2-.1.4-.5.5-1.3s0-.2.1-.2a.2.2 0 0 1 .2.2c0 .2-.1.4-.1.7V31c0 .2-.1.2-.2.2h-.1a3.5 3.5 0 0 1-.1-.7c-.1-.5-.3-.9-.7-1h-1.7v4.4h3.4c.6-.1.9-.7 1-1.6s.1-.4.2-.4a.4.4 0 0 1 .1 0zm8.8 1.7q0 .6-.9.6a1.8 1.8 0 0 1-1.6-.9 1.1 1.1 0 0 1-.3-.7 4.9 4.9 0 0 1-.2-1.7 1.7 1.7 0 0 0-.6-1.2 2.7 2.7 0 0 0-1.5-.4v4.1c0 .2.2.3.4.4h.6c.2 0 .2 0 .2.1s-.1.1-.2.1h-3.1c-.2 0-.3 0-.3-.1s.2-.1.4-.1a1 1 0 0 0 .7-.2v-7.7c0-.3 0-.5-.1-.6h-1a.2.2 0 0 1 .2-.2h3.3a3 3 0 0 1 2 .6 1.5 1.5 0 0 1 .7 1.4 2.1 2.1 0 0 1-.7 1.5 3.2 3.2 0 0 1-2 .7 3.1 3.1 0 0 1 1.9 1 6.6 6.6 0 0 1 .6 2.6c.1.7.4 1.1.8 1.1s.2 0 .2-.1a.3.3 0 0 1-.1-.2.3.3 0 0 1 .6 0zM47 27.1c0-1.3-.5-1.9-1.6-1.9h-.6a.5.5 0 0 0-.2.4V29a2.6 2.6 0 0 0 1.8-.5 1.8 1.8 0 0 0 .6-1.4zm11.3-2h-1.1v8a3.8 3.8 0 0 1-.1.8c-.1 0-.2 0-.2-.1l-1.7-2.5c-1-1.4-2.1-3.2-3.5-5.3v7.3c0 .1 0 .2.2.2h.9c.1 0 .1 0 .1.1s-.1.1-.3.1h-2.3c-.2 0-.3 0-.3-.1s.1-.1.3-.1h.9c.1-.1.1-.3.1-.6v-6.2c0-.7-.1-1.2-.4-1.4h-.8c-.2 0-.3-.1-.3-.2h2.5l4.5 6.8v-6.6h-1.2c0-.1.1-.2.3-.2H58c.2-.2.3-.1.3 0z"/><path fill="none" stroke="#000" stroke-miterlimit="10" d="M.6 7.1h62.9v56.44H.6zm46.3 0C34.3.6 31.8 1.2 31.8 1.2h.4S29.7.6 17.1 7.1"/><circle cx="32" cy="1.6" r="1.6"/></symbol><symbol id="logo-256" viewBox="0 0 256 256"><path stroke="#000" stroke-miterlimit="10" d="M37.6 83c.1-5 .2-9.9.5-14.8a73.5 73.5 0 0 1 1.1-8.2 1.9 1.9 0 0 0 .1-.8l-.2-.2a17.2 17.2 0 0 0-3.2.2l-4.4.6c-2.4.4-4.8 1-7.2 1.6l-1.3.4c-.3.1-.8 0-.8-.2s.3-.4.6-.5l3.2-.8c2.1-.5 4.1-1 6.2-1.3l6.6-.7a18 18 0 0 1 2.2-.2 14.8 14.8 0 0 0 2.1-.1h2.2l1.3.2c.1 0 .2.1.1.2a.3.3 0 0 1-.1.2h-.7l-5 .2a.8.8 0 0 0-.8.6 27 27 0 0 0-.9 4.8 92.8 92.8 0 0 0-.8 10.5c-.1 4.5-.3 9.1-.1 13.6s.1 6.9.4 10.4c0 .2 0 .4-.2.5h-.3a1.9 1.9 0 0 1-.2-.7c-.1-1.5-.2-2.9-.2-4.4-.1-3.7-.1-7.4-.2-11.1z"/><path stroke="#000" stroke-miterlimit="10" d="M42.1 90.9c.4 0 .5-.1 1.2-.8a1.8 1.8 0 0 1 2.1-.1l1.1.6a2.7 2.7 0 0 0 3 0 7.5 7.5 0 0 0 2.5-2.2l1.6-1.9h.4v.2c.1 0 0 .1 0 .2a17 17 0 0 1-3.3 3.8 7.5 7.5 0 0 1-2 1 3 3 0 0 1-2.3-.2l-1.4-1c-1-.6-1.5.2-2.3 1.3s-.5.7-.9.5-.4-.6-.4-1a42.6 42.6 0 0 1-.3-10.1c.4-3.9 1.2-7.9 2.9-11s1.8-2.8 3.1-3.6a2.1 2.1 0 0 1 2.8.5 3.2 3.2 0 0 1 .6 1.8 10.1 10.1 0 0 1-1.7 6.7 36.8 36.8 0 0 1-4 6c-.8 1-1.7 1.9-2.5 2.8a2.4 2.4 0 0 0-.7 1.8 18.8 18.8 0 0 0 .5 4.7zm-.4-9c0 3 .8 1.4 3-1.2s4.7-6.6 5.2-9.8a5.7 5.7 0 0 0-.1-2.6 1.6 1.6 0 0 0-.4-.7 1.3 1.3 0 0 0-1.6-.6 3 3 0 0 0-1.1.7l-1.4 1.6a13 13 0 0 0-1.4 2.6 30 30 0 0 0-2.2 10z"/><path stroke="#000" stroke-miterlimit="10" d="M57.6 91.3c-4.1.9-6.1-3.1-2.7-6.3a1.1 1.1 0 0 1 1.7 1.2 9.5 9.5 0 0 1-1 1.7l-1.1 1.3a.7.7 0 0 0 .2 1 3.4 3.4 0 0 0 1.4.5 7.7 7.7 0 0 0 3.6-.7 16.8 16.8 0 0 0 3.4-2l2-1.4h.6c.1 0 .1.2 0 .3a30.7 30.7 0 0 1-5.5 3.6zm-3.9-3a.3.3 0 0 0 .4.2 6.2 6.2 0 0 0 1.7-2.2c.9-1.8-1.9-.4-2.1 2z"/><path stroke="#000" stroke-miterlimit="10" stroke-width="1.04" d="M117.7 140.7c.6 5 .9 8.7 1.3 12.5a1.5 1.5 0 0 0 .4.9c.2.4.4.1.8-1.1a16.6 16.6 0 0 1 .6-2.1c.6-2 1.3-3.9 2.1-5.9a15.2 15.2 0 0 1 3.1-4.8 8.9 8.9 0 0 1 2.4-1.8 5.6 5.6 0 0 1 6.3.3 11.1 11.1 0 0 1 4.1 4.5 22.8 22.8 0 0 1 3 10.3 34.4 34.4 0 0 1-2.9 16.5 23.9 23.9 0 0 1-5.3 7.9 12.9 12.9 0 0 1-3 2.2 5.4 5.4 0 0 1-5.1.3l-1.7-.7a.7.7 0 0 0-.9.8c.3 2.1.5 4.1.8 6.1l1.3 10.1c0 1 .1 2 0 3.1s-.2.9-.4 1.4-1 .6-1.3.3a5.4 5.4 0 0 1-.9-1.2 24.2 24.2 0 0 1-2.2-6.9 100.3 100.3 0 0 1-2-18.1 116.3 116.3 0 0 1 .3-13.2 24.4 24.4 0 0 0-.1-2.7c-.1-1.5-.3-3.1-.5-4.7-1-7.4-1.4-14.8-2-22.3a9 9 0 0 1 .2-2.3l.6-.4c.1 0 .2.2.2.3a7.6 7.6 0 0 1 .3 1.6c.3 3.4.4 6.9.5 9.1zm2 29.9c-.1.7-.3 1-.3 1.3v3.9l.3 5a65.2 65.2 0 0 0 2.2 14.5 16.1 16.1 0 0 0 .9 2.6l.5.4c.1 0 .4-.4.4-.5s-.1-1.8-.2-2.6l-3.4-23.4a4.1 4.1 0 0 0-.4-1.2zm1-3.9c.1 3.1 1.2 6 1.5 8.8a2.2 2.2 0 0 0 .5 1.1c1.6 2.3 4.7 4.2 7.9 2a27.5 27.5 0 0 0 2.6-2.2 24.2 24.2 0 0 0 2.7-3.6 31.8 31.8 0 0 0 4.7-17.9 44.6 44.6 0 0 0-.7-5.1 20.8 20.8 0 0 0-2.5-6.5 8.7 8.7 0 0 0-4-3.8 4.6 4.6 0 0 0-5 .3 11.4 11.4 0 0 0-1.9 1.9 16.3 16.3 0 0 0-2.4 3.8 50.3 50.3 0 0 0-3.1 9.5c-1 4-1.5 7.9-.3 11.7zm23 29c-.7-1.9-1.4-7.8-2.3-14.5 0 0 0-1 .7-1s.6.8.8 2.3l1.5 10.3c0 .5.6.4.8.2l.8-1.2 2.2-3.1a36.4 36.4 0 0 1 11.1-9.6h.4l.7.4v.3c-.2.2-.2.4-.4.5l-2.2 1.5a33.3 33.3 0 0 0-11.3 12c-.8 1-2.2 3.6-2.8 1.9z"/><path stroke="#000" stroke-miterlimit="10" stroke-width="1.04" d="M166 186.1c-4.4 2.9-7.8-3.5-6-9.3 0-.2.4-.3.6-.3s.2.2.2.3a3.8 3.8 0 0 1 .1 1.5c-.2 2.9.3 7.5 3.2 7.1s7.7-7.1 7.6-6.9.2-.1.3 0a.4.4 0 0 1 .1.3c.2.2.2.3.1.4-1.3 2.4-3.7 5.7-6.2 6.9zm-5.3-16.8c.1-.5.2-1.5.3-2.4l.3-.6a.6.6 0 0 1 .7-.1l.3.2-.6 3.7c0 .1-.2.3-.3.2l-.6-.3z"/><path stroke="#000" stroke-miterlimit="10" stroke-width="1.04" d="M172.7 183.1c-1.5-.2-3-12.1-.7-11 .3.1.5.3.4.5a21.5 21.5 0 0 0 .2 7.6c0 .1.1.3.2.3s1.1-2.6 2.9-4.2a3.3 3.3 0 0 1 4.5-.2l2.4 2.4 2.1 1.5a2.3 2.3 0 0 0 2.5-.1 6.9 6.9 0 0 0 2.5-2.3c.7-.9 1.2-2 2.2-2.5h.3l.3.3a.6.6 0 0 1-.1.4 19 19 0 0 1-3.4 4.5l-1.3.9a3.7 3.7 0 0 1-3.8-.1 11.2 11.2 0 0 1-2.4-1.9l-2.3-2a2 2 0 0 0-2.7.1 9.5 9.5 0 0 0-2 2.8l-.7 1.8c-.2.6-.5 1.4-1.1 1.2z"/><path stroke="#000" stroke-miterlimit="10" stroke-width="1.4" d="M194.6 144.8a19.2 19.2 0 0 0-.3 2.2c-.7 6.5-1.1 12.9-1.3 19.4-.1 4.8 0 9.5.3 14.3a42.9 42.9 0 0 0 1.5 9.4 7.6 7.6 0 0 0 1.3 2.9 3.6 3.6 0 0 0 .7 1 1.8 1.8 0 0 0 1.7.6 5 5 0 0 0 1.9-1 10.4 10.4 0 0 0 2.2-2.5 27.6 27.6 0 0 0 2.8-5c1.5-3.5 2.8-7.1 4.3-10.5a12 12 0 0 1 .9-2.1c.1-.1.3-.2.5.1a.3.3 0 0 1 .1.2.6.6 0 0 1 0 .6c-1.6 4-3.1 8-4.8 12.1a26.6 26.6 0 0 1-3.4 5.9 9.1 9.1 0 0 1-2.4 2.4 3 3 0 0 1-1.1.6 2.7 2.7 0 0 1-3.4-.6 9 9 0 0 1-1.4-2 17.4 17.4 0 0 1-1.3-3.6 98.3 98.3 0 0 1-1.4-13.3c-.1-4.7 0-9.4.1-14s.6-9.8 1.1-14.7a7.5 7.5 0 0 0 0-1.5.7.7 0 0 0-.5-.4l-2.6.9-6.6 2.6a4.9 4.9 0 0 0-2.3 1.4 1.9 1.9 0 0 1-1.8.3l-.3-.2a1.5 1.5 0 0 1 .1-.6c2-1.4 4.7-2.1 9.8-4.3l3.8-1.4a1.1 1.1 0 0 0 .8-1.2c.3-1.2.4-2.5.6-3.8.5-4.2 1.4-8.5 2.2-12.8a5.8 5.8 0 0 1 .5-1.4c0-.1.3-.2.5-.1s.2.1.2.2-.4 2.9-.7 4.4c-.8 4-1.5 8.1-2 12.2v.9a.7.7 0 0 0 .6.6l3.3-1 7.7-2.4.5.2c.1 0 .1.2.1.3v.2l-3.4 1.3-8 2.6z"/><path stroke="#000" stroke-miterlimit="10" stroke-width="1.4" d="M219.6 164.2c0-.2-.1-.5 0-.7a.8.8 0 0 0-.2-.5c-.1-.2-.4-.1-.5 0a20.4 20.4 0 0 0-7.3 10.2 9 9 0 0 0-.4 2.8 2.2 2.2 0 0 0 1.3 2l2.5.5h3.3a9.5 9.5 0 0 1 4.9 1.6l1 .5.9-.7 9.9-8.4 1.3-1h.5c.2.1.1.5.1.5a6.2 6.2 0 0 1-1.4 1.4l-9.1 7.8a3.6 3.6 0 0 0-1.5 1.7 26.8 26.8 0 0 1 .7 2.7c.6 4.1-.3 7.6-3.2 10.3a8.6 8.6 0 0 1-3.8 2.2 7.1 7.1 0 0 1-2.1.2 2.6 2.6 0 0 1-2.4-3.3 12.4 12.4 0 0 1 .4-1.6c.5-.9 1-2.1 1.6-3s2.1-2.6 3.2-3.8 2.2-2.2 3.3-3.4.3-1-.3-1.5a3.9 3.9 0 0 0-2.3-.9l-3.1-.4-3.3-.2a5.5 5.5 0 0 1-1.8-.6 2.5 2.5 0 0 1-1.5-1.8 5.7 5.7 0 0 1-.1-2.6 21.3 21.3 0 0 1 .8-2.7 23.4 23.4 0 0 1 6.3-8.9 6.8 6.8 0 0 1 2.3-1.4c.7-.3 1.4.5 1.4 1.2a1.8 1.8 0 0 1-.6 1.4 1.2 1.2 0 0 1-.8.4zm5 21.8l-.2-1.6a.8.8 0 0 0-.2-.5c-.1-.4-.7-.7-1-.4a36.8 36.8 0 0 0-6.9 7.8 11.3 11.3 0 0 0-.9 2 4.1 4.1 0 0 0-.1 1.9 1.2 1.2 0 0 0 1.2 1.1 5.9 5.9 0 0 0 3.8-1c3.3-2.1 4.7-5.3 4.3-9.3z"/><path stroke="#000" stroke-miterlimit="10" stroke-width=".5" d="M203.6 219.1a6.9 6.9 0 0 1-.1.7c0 1.2-.1 2.2-.1 3.2a2 2 0 0 0 .1.7v1.6c0 .2 0 .3-.2.3s-.3-.1-.4-.4a3.1 3.1 0 0 0-.8-1.2 7.2 7.2 0 0 1-4.9 1.8 9.3 9.3 0 0 1-7-2.9 10.7 10.7 0 0 1-2.7-7.4 10.3 10.3 0 0 1 2.5-7.3 8.3 8.3 0 0 1 6.5-2.9 6.7 6.7 0 0 1 2.3.3 7.3 7.3 0 0 1 2.2.9 1.6 1.6 0 0 0 .9.4.5.5 0 0 0 .5-.4c.3-.6.5-.8.6-.8s.2 0 .2.2v.4a28.1 28.1 0 0 0-.3 5.1 1.5 1.5 0 0 1-.1.6h-.2a.5.5 0 0 1-.4-.5 8.9 8.9 0 0 0-1.1-3.4 5.2 5.2 0 0 0-8-.8q-2.4 2.8-2.4 8.1c0 3.2.6 5.7 2 7.4a5.3 5.3 0 0 0 4.6 2.3 5 5 0 0 0 2.7-.7 6.1 6.1 0 0 0 1.9-2 10.9 10.9 0 0 0 1-3.2c.1-.4.2-.7.4-.7s.3.3.3.6zm20.6-3.4a9.9 9.9 0 0 1-2.6 7.1 7.8 7.8 0 0 1-6.2 3 8.4 8.4 0 0 1-6.6-3 10.5 10.5 0 0 1-2.7-7.3 9.9 9.9 0 0 1 2.6-7.3 8.5 8.5 0 0 1 6.6-2.9 8 8 0 0 1 6.3 3 10.9 10.9 0 0 1 2.6 7.4zm-3.2.1c0-3.5-.7-6.2-2.1-8.2a5 5 0 0 0-7.3-.4c-1.6 1.7-2.3 4.5-2.3 8.4s.5 5.5 1.6 7.2a5.1 5.1 0 0 0 4.5 2.5 4.4 4.4 0 0 0 4.1-2.4 14.4 14.4 0 0 0 1.5-7.1zm9.6 8.3a1.4 1.4 0 1 1-.4-1.1 1.5 1.5 0 0 1 .4 1.1zM58.2 135.6c0 .3-.4.4-1.1.4H44c-.8 0-1.1-.1-1.1-.4s.5-.6 1.5-.6 2.9-.2 3.2-.5.3-1.4.3-3.6v-27.3c0 .1-.2.7-.6 1.9-1.4 4.2-3.5 10.6-6.2 19.1l-2.4 8.4c-.5 1.6-.8 2.5-1.1 2.5s-.5-.5-.7-1.3c-1.1-3.2-3.9-11.2-8.6-23.9l-2.1-5.6v19.8c0 6.4 0 9.7.1 9.8s1.1.6 2.6.6 1.7.2 1.7.6-.4.5-1.1.5h-2.6l-6 .2c-.7 0-1-.1-1-.4s1-.6 3-.6a2.2 2.2 0 0 0 1.5-.4 12.1 12.1 0 0 0 .2-2.8v-25.4a41.7 41.7 0 0 0-.1-4.8 1.8 1.8 0 0 0-.9-1 19.5 19.5 0 0 0-3-.4c-.5 0-.8-.2-.8-.5s.5-.5 1.5-.5h8.1l3.1 8.3 6.7 18.3 2.1-6.7 5.6-17.4a23 23 0 0 1 .9-2.5h9.8a.5.5 0 0 1 .3.5c0 .3-.3.5-.9.5h-2c-.9.2-1.5.4-1.8.9s-.2 2.3-.2 6.1V132c0 1.4.1 2.2.4 2.5s1.6.4 3.4.4h.3c.7.2 1.1.4 1.1.7zm36.1-17.7a19.6 19.6 0 0 1-4.7 13.2 14.7 14.7 0 0 1-11.6 5.5 16 16 0 0 1-12.2-5.5 19.6 19.6 0 0 1-4.9-13.6c0-5.5 1.5-9.9 4.7-13.4a15.9 15.9 0 0 1 12.2-5.3 14.9 14.9 0 0 1 11.7 5.5 20 20 0 0 1 4.8 13.6zm-5.9.2c0-6.4-1.3-11.4-4-15a7.9 7.9 0 0 0-6.9-3.4 8.4 8.4 0 0 0-6.5 2.6c-2.8 3.2-4.3 8.3-4.3 15.5q0 8.4 3 13.2a9.5 9.5 0 0 0 8.4 4.7 8.1 8.1 0 0 0 7.5-4.5c1.9-3.2 2.8-7.6 2.8-13.1zm43.6-.4c0 6.2-2.1 11-6.5 14.4s-7.3 3.8-12.6 3.8H98.6c-.7 0-1-.1-1-.5s.6-.5 1.7-.5 2.3-.2 2.7-.8a6.4 6.4 0 0 0 .2-2v-28.3a7.1 7.1 0 0 0-.4-3c-.3-.3-1.2-.4-2.7-.4s-1.2-.2-1.2-.6.3-.4.9-.4h9.1c6.3 0 10.8.4 13.4 1.3a14.3 14.3 0 0 1 7.8 6.2 20.3 20.3 0 0 1 2.9 10.8zm-5.9-.2c0-5.9-1.1-10.2-3.4-12.9s-5.8-4.1-10.7-4.1c-2.3 0-3.8.3-4.2.8s-.4 1-.4 2.5v28.1c0 1 .1 1.6.1 1.8a.8.8 0 0 0 .5.5c.8.4 2.6.6 5.3.6a11.3 11.3 0 0 0 9.1-4c2.5-2.8 3.7-7.3 3.7-13.3zm37.7 10c0 .1-.1 1-.2 2.5s-.1 3.1-.1 4.6v1.7q-5.1-.3-20.4-.3h-6.6c-.6 0-1-.2-1-.4s.1-.3.4-.4h2c.9-.1 1.4-.3 1.6-.6a5.8 5.8 0 0 0 .3-2.5v-29.7c0-1.1-.1-1.7-.4-1.9a7.7 7.7 0 0 0-2.9-.3c-.6 0-.9-.1-.9-.4s.4-.4 1.2-.4h22.3a12.9 12.9 0 0 0 2.9-.3c.1 1.6.2 3.6.5 6.3l.2 2.3a5.6 5.6 0 0 1 .1.7.5.5 0 0 1-.5.5c-.4 0-.7-.5-.9-1.3-.6-3.2-1.7-5.2-3.2-6.1s-4.1-.9-8.9-.9H145V116h1.3q5.8 0 7.2-.9c.8-.6 1.4-2.3 1.7-5.2.1-.7.3-1.1.6-1.1s.6.3.6 1-.1 1.5-.1 2.8-.1 2.1-.1 2.8c0 3.7 0 6.3.1 7.7a2.8 2.8 0 0 1 .1.9c0 .4-.2.7-.6.7s-.4-.2-.5-.5a27 27 0 0 1-.4-2.9c-.3-2.1-1.2-3.3-2.6-3.8a20.3 20.3 0 0 0-4.9-.4H145v17.7c7.7 0 12.3-.2 13.6-.5s3.6-2.7 3.9-6.6c.1-.9.3-1.3.7-1.3s.6.3.6 1.1zm35.4 6.9c0 1.4-1.2 2.2-3.7 2.2a7.4 7.4 0 0 1-6.4-3.5 8.8 8.8 0 0 1-1.3-2.8c-.2-.9-.4-3.2-.8-6.9a6.4 6.4 0 0 0-2.2-4.8q-1.8-1.3-6-1.5v16.6c0 .7.6 1.1 1.7 1.3h2.4c.5 0 .7.1.7.4s-.3.5-.9.5h-12.4c-.7 0-1.1-.2-1.1-.5s.5-.4 1.5-.4 2.5-.3 2.7-.6a6.7 6.7 0 0 0 .2-2.1v-29a4.4 4.4 0 0 0-.5-2.6c-.3-.3-1.2-.4-2.7-.4s-1.3-.2-1.3-.5.3-.5.9-.5h.4l7 .2h5.9a12.9 12.9 0 0 1 7.8 2.1 7.3 7.3 0 0 1 2.9 6 7.4 7.4 0 0 1-3 6 14.2 14.2 0 0 1-8 2.9h-.5c0 .2.2.2.5.2 3.7.7 6.2 2 7.6 3.9s2.3 5.5 2.8 10.6c.3 2.9 1.2 4.3 2.9 4.3s.8-.1.8-.3a2.2 2.2 0 0 1-.3-1c0-.7.4-1.1 1.2-1.1s1.2.4 1.2 1.3zM188.3 108c0-5-2.1-7.5-6.5-7.5a4.7 4.7 0 0 0-2.4.4 2.1 2.1 0 0 0-.6 1.7V116c3.4 0 5.8-.6 7.3-1.9s2.2-3.3 2.2-6.1zm45.5-8.1c0 .3-.4.5-1.3.5h-2.1a1.6 1.6 0 0 0-1 .2 5.3 5.3 0 0 0-.2 1.8v33.5c-.1.4-.2.5-.3.5s-.5-.2-.8-.6l-6.7-9.8c-3.9-5.8-8.6-12.9-14.2-21.5v29.4a.9.9 0 0 0 .8.9 21.8 21.8 0 0 0 3.5.2c.5 0 .7.2.7.5s-.4.5-1.3.5l-3-.2h-6.1c-.8 0-1.2-.2-1.2-.5s.3-.5 1-.5 3.3-.1 3.7-.4.5-.9.5-2.2v-26c0-2.9-.6-4.7-1.8-5.5a7.1 7.1 0 0 0-3-.5c-.9 0-1.4-.2-1.4-.5s.3-.5.8-.5h9.2l18.2 27.1v-25.2a1 1 0 0 0-.5-.6h-2.5c-1.3 0-1.9-.2-1.9-.5s.4-.5 1.3-.5h8.5c.7-.1 1.1 0 1.1.4z"/><path fill="none" stroke="#000" stroke-miterlimit="10" stroke-width="2" d="M1.5 27.5h253v227.16H1.5zm186.3 0C137.2 1.5 127.2 4 127.2 4h1.6s-10-2.5-60.6 23.5"/><circle cx="128" cy="5" r="5"/></symbol><symbol id="logo-32" viewBox="0 0 32 32"><path fill="none" stroke="#000" stroke-miterlimit="10" d="M.8 4.1h30.5v27.36H.8z"/><path fill="none" stroke="#000" stroke-linejoin="round" stroke-width=".75" d="M23.2 4.1c-6.1-3.1-7.3-2.8-7.3-2.8h.2S14.9 1 8.8 4.1"/><circle cx="16" cy="1.5" r="1"/><path d="M26.4 26.8c0 .2-.2.2-.6.2h-7c-.4 0-.6-.1-.6-.2s.3-.3.8-.3a3.1 3.1 0 0 0 1.8-.3 6.3 6.3 0 0 0 .1-1.9V9.7l-.3 1q-1.2 3.5-3.3 10.2L16 25.4c-.3.9-.5 1.3-.6 1.3s-.2-.2-.4-.7-2.1-5.9-4.6-12.7l-1.1-3v10.6a42.7 42.7 0 0 0 .1 5.2c.1.2.6.3 1.3.3s1 .1 1 .3-.2.3-.6.3H6.5c-.4 0-.5-.1-.5-.2s.5-.3 1.6-.3.7-.1.7-.3a3 3 0 0 0 .2-1.4V11.3c0-1.6-.1-2.4-.1-2.5s-.2-.5-.5-.6L6.3 8c-.3 0-.4-.1-.4-.2s.3-.4.8-.4H11c.1.3.7 1.7 1.7 4.4l3.6 9.9c.3-1.2.7-2.4 1.1-3.6l3-9.3a3.9 3.9 0 0 1 .5-1.3h5.2a.4.4 0 0 1 .1.3c0 .2-.1.3-.5.3h-1c-.5.1-.8.2-1 .5a18 18 0 0 0-.1 3.3V25a2.7 2.7 0 0 0 .2 1.3 3.8 3.8 0 0 0 1.9.3h.1c.4 0 .6 0 .6.2z"/></symbol></svg>