<svg xmlns="http://www.w3.org/2000/svg"><symbol id="mail-icon" viewBox="0 0 36 36"><path fill="#b67059" d="M29 8.8c-1.2-.2-20.2-.5-21.1-.3s-1.7.7-1.8 1.7 9.2 9.7 13.4 9.3c1.9 0 8.8-7.6 10-8.8s.3-1.7-.5-1.9z"/><path fill="none" stroke="#414042" stroke-miterlimit="10" stroke-width=".7" d="M.6 10.5V5.2A4.9 4.9 0 0 1 5.5.3h25a4.9 4.9 0 0 1 4.9 4.9v25.6a4.9 4.9 0 0 1-4.9 4.9h-25a4.9 4.9 0 0 1-4.9-4.9V12.5c0-.8 3.8-1 3.8-.3v11.3a3.3 3.3 0 0 0 3.1 3.3h.1c.6 0 5-7.4 5.4-7.7s.9.1.8.4-4.9 7.2-4.8 7.3 17.2.2 17.4 0-4-6.6-4.4-7.3a.5.5 0 1 1 .8-.6c.3.4 3.8 6.5 4.9 7.9h.2a3.3 3.3 0 0 0 3.3-3.3V11.4c0-.7-.1-1.6-1-1.8s-9 9.7-12.5 9.7-12.6-8.1-12.8-8.7a1.4 1.4 0 0 1 .2-1.3A3.6 3.6 0 0 1 7.7 8h20.2a3.2 3.2 0 0 1 2.1.8"/></symbol><symbol id="insta-icon" viewBox="0 0 36 36"><path fill="#b67059" d="M28.1 6.3C25.9 5.8 9 5.3 7.7 7.7s-.8 6.3-.8 7.5 4.7.6 4.7-.7 2.6-4 6.2-4.3 4.6 2.3 5.8 3.1 5.4.7 6.1 0 .5-6.5-1.6-7zm-1.5 5.8a2.3 2.3 0 1 1 2.2-2.2 2.2 2.2 0 0 1-2.2 2.2z"/><path fill="none" stroke="#414042" stroke-miterlimit="10" stroke-width=".7" d="M.7 13V5.2A4.9 4.9 0 0 1 5.6.3h25a4.9 4.9 0 0 1 4.9 4.9v25.6a4.9 4.9 0 0 1-4.9 4.9h-25a4.9 4.9 0 0 1-4.9-4.9v-2.7S.4 16.7.6 15.9s4.5-.9 5-.4.4 8.6.4 11S8.7 30 10.5 30h15.7a4.1 4.1 0 0 0 3.9-4.3c0-2.8.4-11.5-.4-11.5a14.2 14.2 0 0 1-6.9-.4c-1-.4-2.2-2.2-5.1-2.2s-6 2.4-5.7 7.2c.3 6.4 11 7.3 12-.2 1.1-9.1-8.9-10-12.3-4.6-.6 1.2-5.4.9-5.7 0s0-4.3 0-6 2.1-2.4 3.6-2.4h17.1c1.7 0 3.5.8 3.5 2.5v4.2c0 1-5.6.4-6.2-2a2.4 2.4 0 0 1 3.2-3c2.1.8 2 4.3-.7 4.3"/></symbol><symbol id="facebook-icon" viewBox="0 0 36 36"><path fill="#b67059" d="M29 5.1v5.6s-3.6-.5-4.6.5a2.8 2.8 0 0 0-.5 2.6H29l-.2 5.4h-5.2v14.6s-5.3.8-5.3-.3.4-14.3 0-14.3-2.7.2-2.7-.2-.4-4.9.1-4.9 2.6.2 2.6-.2-.6-6.9 1.6-8 9.1-.8 9.1-.8z"/><path fill="none" stroke="#414042" stroke-miterlimit="10" stroke-width=".7" d="M17.3 34.4V19.8H14v-6.2h2.8c-.4-9.6 2.9-9.5 11.3-9.5v5.4c-4.9 0-4.6.9-4.6 4.1h5l-.4 6.3h-5v14.8c0 1.5 7.9.9 7.9.9a4.7 4.7 0 0 0 4.6-4.7v-26A4.7 4.7 0 0 0 31 .3H5A4.7 4.7 0 0 0 .4 4.9v26A4.7 4.7 0 0 0 5 35.6h12.3"/></symbol><symbol id="etsy-icon" viewBox="0 0 36 36"><path fill="#b67059" d="M9.3 30.5c.3.3 17.7.3 18.2 0s2.2-6.2 2.2-6.6-1.6-.3-1.6 0-2 4.5-4.9 4.6h-6c-.4 0-.8-.2-.8-1.6s-.4-7.2 0-7.6 5.4-.2 6-.2 1.8 3.3 1.8 3.3 1.1.4 1.4.1.3-8.5 0-8.8-1.3 0-1.3 0 .1 3.4-2.1 3.4h-5.8c-.4-.2-.2-8.1 0-8.3a44.3 44.3 0 0 1 5.6-.2c5.1 0 4.1 3.6 4.4 3.9a1.4 1.4 0 0 0 1.4 0c.3-.3 0-5.6-.3-5.9s-18-.1-18.2 0 0 1.1 0 1.5 2.3-.5 3 .7.3 17.2.3 18.4-2.8 1.8-3.3 2-.3 1 0 1.3z"/><path fill="none" stroke="#414042" stroke-miterlimit="10" stroke-width=".7" d="M.6 30.8a4.9 4.9 0 0 0 4.9 4.9h25a4.9 4.9 0 0 0 4.9-4.9V5.2A4.9 4.9 0 0 0 30.5.3h-25A4.9 4.9 0 0 0 .6 5.2v22.9c0 .6 5.2.5 7.7.5s3.3-.7 3.3-2 .4-17.1-.3-18.4-3-.3-3-.7-.2-1.3 0-1.4 18-.3 18.3 0 .5 5.5.2 5.8-1.4 0-1.4 0c-.3-4.2-2.6-3.8-4.3-3.8h-5.7v8.4h5.9c2.1 0 2-3.4 2-3.4h1.3v8.8h-1.3c-.2-2.8-1.3-3.3-1.9-3.3h-6v7.8c0 1.4.4 1.6.8 1.6h6c2.9-.1 4.9-4.2 4.9-4.5s1.6-.4 1.6 0a49.6 49.6 0 0 1-2.1 6.5H8.3"/></symbol></svg>