<svg xmlns="http://www.w3.org/2000/svg"><symbol id="etsy-icon" viewBox="0 0 36 36"><path fill="#b67059" d="M9.7 30.3c.3.3 17.1.3 17.6 0s2.1-5.9 2.1-6.3-1.6-.3-1.6 0-1.9 4.3-4.7 4.4h-5.8c-.3 0-.7-.2-.7-1.5s-.4-6.9 0-7.4 5.1-.1 5.7-.1 1.8 3.1 1.8 3.1 1.1.4 1.3.1.3-8.2 0-8.5-1.2 0-1.2 0 .1 3.3-2 3.3h-5.6c-.4-.2-.2-7.8 0-8a41.5 41.5 0 0 1 5.4-.2c4.8 0 3.9 3.5 4.1 3.7a1.4 1.4 0 0 0 1.5 0 26.7 26.7 0 0 0-.3-5.6c-.3-.2-17.4-.1-17.6 0a7.4 7.4 0 0 0 0 1.5c0 .4 2.3-.5 2.9.6s.3 16.6.3 17.8-2.7 1.7-3.2 1.9-.2.9 0 1.2z"/><path fill="#414042" d="M30.2 35.5H5.8a5.2 5.2 0 0 1-5.3-5.2h1a4.2 4.2 0 0 0 4.3 4.2h24.4a4.2 4.2 0 0 0 4.3-4.2V5.7a4.2 4.2 0 0 0-4.3-4.2H5.8a4.2 4.2 0 0 0-4.3 4.2v21.8a34.6 34.6 0 0 0 6 .3h1c2.8 0 2.8-1 2.8-1.5V25c.2-12.5 0-15.7-.3-16.2s-1-.4-1.8-.3-.8.1-1-.2H8v-.8c-.1-.7-.1-1.1.2-1.3s.2-.3 10.2-.3h.2c7.8 0 7.9.1 8.1.3s.8 5.7.3 6.2-1.4.3-1.9.2h-.4v-.4C24.5 9 23 9 21.4 9H16v7.2h5.2a.9.9 0 0 0 .8-.4 3.9 3.9 0 0 0 .7-2.4v-.5H25v9.5l-2.3-.2v-.4c-.1-1.7-.6-2.7-1.4-2.7H16v7c0 .9.2 1.1.2 1.1h5.9c2.3 0 4.2-3.4 4.3-3.9s.5-.7 1.4-.7 1.2.5 1.2.8-1.7 6.6-2.6 6.6H8.5v-1h17.6c.4-.9 1.5-4.5 1.8-5.6h-.5c-.4 1.1-2.5 4.6-5.3 4.6h-5.9c-1.2.1-1.2-1.5-1.2-2v-8h6.3c.6 0 2 .4 2.3 3.2h.4v-7.4h-.3a4.7 4.7 0 0 1-1 2.6 2 2 0 0 1-1.5.6H15V8h6.4c1.5-.1 3.8-.1 4.3 3.7h.5a39.3 39.3 0 0 0-.2-4.8c-2-.1-14.8-.1-17.1 0a.7.7 0 0 0 .1.5h.1c.9-.1 2.2-.2 2.8.9s.6 5.7.4 16.6c0 .7-.1 1.1-.1 1.3 0 2.2-2.1 2.4-3.7 2.4h-1c-4.9 0-6.4-.1-6.8-.5L.5 28V5.7A5.2 5.2 0 0 1 5.8.5h24.4a5.2 5.2 0 0 1 5.3 5.2v24.6a5.2 5.2 0 0 1-5.3 5.2zm-2.8-12.3z"/></symbol><symbol id="facebook-icon" viewBox="0 0 36 36"><path fill="#b67059" d="M29.2 5.1v5.6s-3.6-.5-4.6.5a2.8 2.8 0 0 0-.5 2.6h5.1l-.2 5.4h-5.2v14.6s-5.3.8-5.3-.3.5-14.3 0-14.3-2.6.2-2.6-.2-.5-4.9 0-4.9 2.6.2 2.6-.2-.5-6.9 1.6-8 9.1-.8 9.1-.8z"/><path fill="#414042" d="M27.3 35.5c-1.9 0-3.9-.1-4.6-.8a1.1 1.1 0 0 1-.3-.7V19.4h4.8l.4-5.1h-4.8v-.9c0-1.4 0-2.5.7-3.1s1.6-.9 3.8-1V5.1c-4.3 0-7.1 0-8.5 1.6s-1.6 3.3-1.5 7v.5h-2.7v5h3.2v14.5h-1V20.2h-3.2v-7h2.7c-.1-3.7.4-5.9 1.7-7.2s5-1.9 9.6-1.9h.7v6.2h-.5c-2.1 0-3.2.2-3.6.7s-.4 1.1-.4 2.3h4.9l-.5 7.1h-4.8V34c.3.5 3.6.7 7.1.4a4 4 0 0 0 4-4v-25a4 4 0 0 0-4-3.9h-25a4 4 0 0 0-4 3.9v25a4 4 0 0 0 4 4h11.8v1H5.5a5 5 0 0 1-5-5v-25a4.9 4.9 0 0 1 5-4.9h25a4.9 4.9 0 0 1 5 4.9v25a5 5 0 0 1-5 5z"/></symbol><symbol id="insta-icon" viewBox="0 0 36 36"><path fill="#b67059" d="M28.1 6.7C25.9 6.3 9 5.7 7.7 8.1s-.8 6.4-.8 7.5 4.7.6 4.7-.7 2.6-4 6.2-4.3 4.6 2.4 5.8 3.1 5.4.7 6.1 0 .5-6.5-1.6-7zm-1.5 5.8a2.3 2.3 0 1 1 2.2-2.2 2.2 2.2 0 0 1-2.2 2.2z"/><path fill="#414042" d="M30.1 35.5H5.7a5.2 5.2 0 0 1-5.2-5.2v-2.5c-.1-2.6-.3-11.2-.1-12s.6-.6 1-.7 4.1-.4 4.7.2.6 2 .6 9.9v1c0 2.1 2.3 2.9 3.8 2.9h15.3a3.6 3.6 0 0 0 3.3-3.7v-2.3c0-2.4.1-7.2-.2-8.3h-.4a13.8 13.8 0 0 1-4.6 0 8.9 8.9 0 0 1 .2 3.7 6.2 6.2 0 0 1-6.6 5.6c-2.9-.1-5.9-2-6.1-5.4s.9-4.7 1.9-5.6l.4-.4a4.9 4.9 0 0 0-1.6 1.6c-.6 1.2-3.6 1-3.9 1s-2.3-.3-2.5-1a25.7 25.7 0 0 1-.1-3.9 15.6 15.6 0 0 0 .1-2c0-1.9 2.3-2.8 3.9-2.8h16.7c1.8 0 3.9.9 3.9 2.9v4c0 .3-.2.8-1.2.9s-5.3-.6-5.9-2.7a2.9 2.9 0 0 1 .8-2.9 3.3 3.3 0 0 1 3-.6 2.9 2.9 0 0 1 1.8 3.1 2.6 2.6 0 0 1-1.8 2 6.3 6.3 0 0 0 2.3.1V8.5c0-1.3-1.5-1.9-2.9-1.9H9.6c-1.2 0-2.9.6-2.9 1.8a15.6 15.6 0 0 1-.1 2V14a7.8 7.8 0 0 0 3.4.4c.9-.1 1.2-.4 1.2-.5a7.6 7.6 0 0 1 8.9-3 5.7 5.7 0 0 1 3.3 2.8 12.5 12.5 0 0 0 5 .2c.7-.1 1-.1 1.2.1s.6 2.5.5 9.1v2.3a4.5 4.5 0 0 1-4.3 4.7H10.5c-1.9 0-4.8-1.1-4.8-3.9v-1c0-2.1 0-8.3-.3-9.2a8.2 8.2 0 0 0-4.1.2c-.1.9.1 7.5.2 11.5v2.6a4.2 4.2 0 0 0 4.2 4.2h24.4a4.2 4.2 0 0 0 4.2-4.2V5.7a4.2 4.2 0 0 0-4.2-4.2H5.7a4.2 4.2 0 0 0-4.2 4.2v7.5h-1V5.7A5.2 5.2 0 0 1 5.7.5h24.4a5.2 5.2 0 0 1 5.2 5.2v24.6a5.2 5.2 0 0 1-5.2 5.2zM17.5 12.3a4.8 4.8 0 0 0-3.5 1.6 6.2 6.2 0 0 0-1.6 4.8c.2 3 2.8 4.4 5.1 4.5a5.1 5.1 0 0 0 5.6-4.7 7 7 0 0 0-.4-3.9l-.4-.2a3.4 3.4 0 0 1-1.1-.7 6 6 0 0 0-3.7-1.4zm8.4-4.2a1.5 1.5 0 0 0-1.3.5 1.6 1.6 0 0 0-.5 1.8c.2.9 1.3 1.4 1.9 1.6h.1v-.6a1.5 1.5 0 0 0 1.6-1.2 1.8 1.8 0 0 0-1.1-2z"/></symbol><symbol id="mail-icon" viewBox="0 0 36 36"><path fill="#b67059" d="M29.3 9.5C28 9.3 9.1 9 8.2 9.3s-1.8.6-1.8 1.6 9.2 9.7 13.4 9.3c1.9 0 8.8-7.6 10-8.8s.3-1.7-.5-1.9z"/><path fill="#414042" d="M30.2 35.5H5.8a5.2 5.2 0 0 1-5.3-5.2V12.7c0-1.1 2.5-1.1 2.9-1.1s1.8 0 1.8.8v10.9A2.7 2.7 0 0 0 7.8 26c.5-.5 2.1-3.1 3.2-4.6a21.6 21.6 0 0 1 1.9-2.8 1.1 1.1 0 0 1 1.1 0 .9.9 0 0 1 .4 1l-2 3-2.4 3.5h15.5c-.4-.8-1.4-2.4-3.7-5.9l-.3-.5a1.1 1.1 0 0 1 .3-1.4.9.9 0 0 1 1.3.3c.1 0 .3.4.6.9s3.2 5.3 4.1 6.5a2.7 2.7 0 0 0 2.6-2.7V11.6c0-.8-.2-1.1-.5-1.1a32 32 0 0 0-2.8 2.5c-3.8 3.7-7.2 6.8-9.4 6.8S5.1 11.9 4.8 11.1A2.2 2.2 0 0 1 5 9.4a4 4 0 0 1 3-1.5h19.7a3.3 3.3 0 0 1 2.3.9l-.6.7a2.7 2.7 0 0 0-1.7-.6H8A2.7 2.7 0 0 0 5.8 10a.8.8 0 0 0-.1.7c.4.6 8.8 8.1 12 8.1s6.1-3.9 8.8-6.5 3-2.9 3.5-2.8 1.4.6 1.4 2.1v11.7a3.8 3.8 0 0 1-3.7 3.7l-.5-.2-.8-1.1c.4.8.3 1 .1 1.1s-17.3.4-17.6 0-.2-.2-.1-.6-.7.8-.9.8h-.1a3.8 3.8 0 0 1-3.5-3.7V12.6a6.4 6.4 0 0 0-2.8.2v17.5a4.2 4.2 0 0 0 4.3 4.2h24.4a4.2 4.2 0 0 0 4.3-4.2V5.7a4.2 4.2 0 0 0-4.3-4.2H5.8a4.2 4.2 0 0 0-4.3 4.2v5.1h-1V5.7A5.2 5.2 0 0 1 5.8.5h24.4a5.2 5.2 0 0 1 5.3 5.2v24.6a5.2 5.2 0 0 1-5.3 5.2zM7.8 26zm14.5-6.9v.2a.3.3 0 0 0 0-.2zm7.7-8.7z"/></symbol></svg>